<svg width="240" height="175" viewBox="0 0 240 175" fill="none" xmlns="http://www.w3.org/2000/svg">
  <path
    d="M217.113 52.0103C217.113 37.3207 205.205 25.4124 190.515 25.4124H105.019C101.177 25.4124 98.0625 28.5267 98.0625 32.3684C98.0625 34.4363 96.5132 37.7835 94.4453 37.7835H78.0192C75.457 37.7835 73.38 39.8605 73.38 42.4227C73.38 44.9848 75.4571 47.0618 78.0192 47.0618H92.596C95.1816 47.0618 97.1134 49.4247 97.1134 52.0103C97.1134 58.0851 92.9999 65 86.9251 65H28.78C20.9228 65 14.5532 71.3695 14.5532 79.2268C14.5532 87.084 20.9228 93.4536 28.78 93.4536H40.0965C41.9647 93.4536 43.299 95.2968 43.299 97.1649C43.299 99.624 41.6411 102.289 39.3883 103.275C34.4773 105.425 31.046 110.327 31.046 116.031C31.046 123.717 37.2771 129.948 44.9635 129.948C47.6641 129.948 49.8863 131.987 50.6724 134.57C54.1069 145.858 64.5994 154.072 77.0103 154.072H182.165C197.367 154.072 209.691 141.748 209.691 126.546C209.691 126.312 209.688 126.077 209.682 125.844C209.503 118.698 214.295 109.536 221.443 109.536C228.276 109.536 233.814 103.997 233.814 97.1649C233.814 90.3326 228.276 84.7938 221.443 84.7938H201.908C199.198 84.7938 197.32 81.9375 197.32 79.2268C197.32 78.3757 197.855 77.597 198.665 77.3365C209.368 73.8951 217.113 63.8572 217.113 52.0103Z"
    fill="#BDE6FA"/>
  <g clip-path="url(#clip0_67494_115785)">
    <path
      d="M31.3482 77.2785C31.117 77.3365 30.9732 77.586 31.0269 77.8354C31.4702 79.8935 31.567 82.0506 31.3062 84.0736C31.2737 84.3276 31.4377 84.5619 31.6728 84.597C31.6929 84.6 31.7131 84.6015 31.7327 84.6015C31.9437 84.6015 32.1278 84.4336 32.158 84.2016C32.4329 82.0669 32.3315 79.7929 31.8642 77.6252C31.8105 77.3751 31.5793 77.2217 31.3482 77.2785ZM30.3519 79.8908C30.1157 79.9143 29.9416 80.1402 29.9635 80.3954C30.0681 81.6123 30.0407 82.8135 29.8818 83.9654C29.847 84.2188 30.0094 84.455 30.2439 84.4925C30.2651 84.4961 30.2864 84.4976 30.3077 84.4976C30.517 84.4976 30.7006 84.3321 30.7325 84.102C30.901 82.8766 30.9306 81.6005 30.8198 80.3097C30.798 80.0545 30.5808 79.8642 30.3519 79.8908ZM31.0258 75.7717C30.5411 75.8934 30.1291 76.2117 29.8655 76.6678C29.6019 77.1245 29.5191 77.6636 29.6316 78.1855C29.6859 78.4389 29.7351 78.6926 29.7782 78.946C29.8202 79.1982 30.0497 79.3646 30.278 79.3187C30.512 79.2725 30.6664 79.0306 30.6234 78.7787C30.578 78.5114 30.5265 78.2438 30.4689 77.9756C30.4084 77.6947 30.4532 77.4047 30.5954 77.1589C30.7375 76.9127 30.9597 76.7409 31.22 76.6756C31.7595 76.54 32.2974 76.9049 32.4222 77.4854C32.884 79.6265 33.0049 81.7718 32.7815 83.8621C32.7541 84.1168 32.9237 84.3469 33.1593 84.3762C33.1761 84.3783 33.1929 84.3792 33.2092 84.3792C33.4246 84.3792 33.6105 84.2049 33.6356 83.9685C33.8702 81.7721 33.7437 79.5202 33.2595 77.2755C33.0278 76.1975 32.0282 75.5228 31.0258 75.7717ZM29.5347 76.1012C29.6825 75.9 29.6506 75.6083 29.4642 75.4494C29.2773 75.2902 29.0075 75.3256 28.8609 75.5255C28.7853 75.6285 28.7148 75.7369 28.6499 75.8493C28.1836 76.6569 28.0364 77.611 28.2362 78.5361C28.6034 80.2411 28.689 81.9926 28.4842 83.6015C28.4517 83.8552 28.6163 84.0893 28.8513 84.1243C28.8715 84.127 28.8911 84.1285 28.9107 84.1285C29.1222 84.1285 29.3064 83.9603 29.336 83.7277C29.5549 82.008 29.4642 80.1402 29.0735 78.3259C28.9263 77.6424 29.0349 76.9372 29.3797 76.3398C29.4278 76.2564 29.4793 76.177 29.5347 76.1012ZM34.7069 80.352C34.4702 80.3646 34.2871 80.5821 34.2989 80.8382C34.3381 81.6942 34.3258 82.554 34.2625 83.3937C34.2429 83.6492 34.4192 83.873 34.656 83.8939C34.6677 83.8948 34.6795 83.8954 34.6912 83.8954C34.9129 83.8954 35.1009 83.7117 35.1188 83.4692C35.1854 82.5894 35.1983 81.6887 35.1575 80.7923C35.1457 80.5362 34.9386 80.3453 34.7069 80.352ZM34.6022 79.7119C34.6202 79.7119 34.6381 79.7107 34.656 79.7083C34.8916 79.6769 35.0584 79.445 35.0293 79.1909C34.9425 78.4347 34.816 77.6723 34.6549 76.9254C34.3129 75.3328 32.9539 74.1767 31.4237 74.1767C31.1819 74.1767 30.9401 74.2063 30.7039 74.2648C30.5086 74.3138 30.3172 74.3817 30.1342 74.4672C29.9165 74.569 29.8163 74.8423 29.9103 75.0773C30.0049 75.3126 30.2584 75.421 30.4756 75.3189C30.611 75.2555 30.7538 75.2051 30.8976 75.1688C31.0694 75.1262 31.2463 75.1045 31.4237 75.1045C32.5582 75.1045 33.5646 75.9583 33.8175 77.1356C33.972 77.8514 34.0929 78.5815 34.1763 79.3051C34.2032 79.5401 34.3884 79.7119 34.6022 79.7119ZM36.0507 76.5772C35.8554 75.6663 35.4228 74.8296 34.8009 74.1564C34.6336 73.9752 34.3616 73.9758 34.1931 74.157C34.0246 74.3379 34.0246 74.6354 34.192 74.8166C34.7008 75.3675 35.0539 76.0582 35.2134 76.8006C35.6136 78.6584 35.7927 80.5645 35.7457 82.4287C35.7396 82.6848 35.9265 82.9381 36.1638 82.9381H36.1756C36.4078 82.9381 36.5987 82.7062 36.6054 82.4543C36.6541 80.5108 36.4677 78.512 36.0507 76.5772ZM27.4577 80.374C27.4784 80.374 27.4997 80.3725 27.5209 80.3692C27.7555 80.332 27.9178 80.0961 27.8836 79.8427C27.8316 79.4604 27.7627 79.068 27.6782 78.6757C27.4437 77.5905 27.6161 76.4703 28.164 75.5222C28.7103 74.5759 29.5666 73.9154 30.573 73.6626C31.4422 73.4466 32.3674 73.5741 33.1666 74.0078C33.3776 74.1238 33.6368 74.0308 33.7437 73.8021C33.8506 73.5732 33.7649 73.2941 33.5528 73.179C32.5761 72.6484 31.445 72.495 30.3793 72.7586C29.1485 73.0679 28.1025 73.8749 27.4342 75.0311C26.7648 76.1903 26.5543 77.5594 26.8409 78.8859C26.9198 79.2532 26.9842 79.6201 27.0329 79.9774C27.0642 80.2082 27.2478 80.374 27.4577 80.374ZM27.5859 81.0825H27.5713C27.334 81.0825 27.1482 81.2367 27.156 81.4928C27.1728 82.0171 27.1583 82.4701 27.1129 82.9709C27.0894 83.2258 27.2624 83.4519 27.4986 83.4769C27.5125 83.4784 27.5271 83.4785 27.5411 83.4785C27.7594 83.4785 27.9463 83.3317 27.9681 83.0922C28.0174 82.5509 28.0336 82.0265 28.0157 81.4611C28.0073 81.2104 27.8165 81.0825 27.5859 81.0825Z"
      fill="white"/>
  </g>
  <path
    d="M184.948 116.34C184.948 119.927 187.802 127.474 182.165 127.474C176.528 127.474 160.372 114.048 160.372 110.461C167.795 109.534 175.67 109.845 178.62 110.152C186.352 111.699 184.948 112.753 184.948 116.34Z"
    fill="url(#paint0_linear_67494_115785)"/>
  <path
    d="M143.505 112.32C146.763 110.433 188.041 108.918 181.237 112.629L176.481 112.365C175.941 112.335 175.4 112.349 174.863 112.406L162.494 113.728L146.033 114.757C146.033 114.757 135.031 115.578 143.505 112.32Z"
    fill="#20476C"/>
  <path
    d="M160.436 106.417V106.184C160.436 102.68 157.596 99.8394 154.092 99.8394C150.588 99.8394 147.748 102.68 147.748 106.184V107.43C147.748 110.682 145.675 113.574 142.594 114.618L136.001 116.853C130.679 118.657 126.565 122.934 124.968 128.322L124.141 131.115C123.648 132.779 123.345 134.494 123.239 136.226L122.606 146.574C122.166 153.751 126.725 160.286 133.612 162.352C134.914 162.743 136.261 162.96 137.62 162.999L169.309 163.904C170.817 163.947 172.324 163.784 173.788 163.418L176.787 162.668C183.514 160.986 191.494 154.604 191.129 147.679C191.013 145.476 188.274 136.008 186.291 129.473C185.639 127.327 184.738 125.256 183.468 123.408C178.723 116.502 174.488 114.05 166.881 113.228C163.317 112.842 160.436 110.001 160.436 106.417Z"
    fill="#F2B99A"/>
  <path
    d="M160.436 106.184V106.417C160.436 107.633 160.768 108.763 161.345 109.741L145.341 112.974C146.843 111.569 147.748 109.578 147.748 107.429V106.184C147.748 105.217 147.964 104.3 148.351 103.48L160.128 104.224C160.328 104.841 160.436 105.5 160.436 106.184Z"
    fill="#CC886E"/>
  <path
    d="M141.635 114.943L136.002 116.853C130.679 118.657 126.565 122.934 124.968 128.323L124.141 131.115C123.648 132.779 123.345 134.494 123.239 136.226L122.606 146.574C122.166 153.751 126.725 160.286 133.612 162.352C134.914 162.743 136.261 162.96 137.62 162.999L169.309 163.904C170.817 163.947 172.324 163.784 173.788 163.418L176.787 162.668C183.514 160.986 191.494 154.604 191.13 147.68C191.014 145.476 188.274 136.008 186.291 129.473C185.64 127.327 184.738 125.256 183.468 123.408C178.723 116.502 174.488 114.05 166.881 113.228C166.121 113.146 165.392 112.952 164.716 112.663C163.839 112.898 158.758 114.33 157.007 116.472C156.32 117.312 155.677 118.308 155.09 119.356C153.621 121.976 149.317 122.027 148.262 119.216C147.22 116.439 145.052 114.485 145.052 114.485L141.635 114.943Z"
    fill="#5FA4E5"/>
  <path
    d="M146.598 111.392L144.433 112.01L140.609 113.683C140.162 113.879 140.146 114.506 140.582 114.724V114.724C140.673 114.77 140.775 114.79 140.877 114.783L143.858 114.585C144.813 114.521 145.749 114.873 146.426 115.549V115.549C146.743 115.867 146.993 116.246 147.16 116.663L147.763 118.171C148.015 118.799 148.397 119.376 148.875 119.855V119.855C149.789 120.768 150.324 122.01 150.349 123.301L150.619 136.752L148.763 154.072"
    stroke="#A1D1FF"/>
  <ellipse rx="3.4294" ry="5.1441" transform="matrix(-1 0 0 1 135.916 81.6636)" fill="#A1A6AF"/>
  <ellipse rx="3.4294" ry="5.1441" transform="matrix(-1 0 0 1 136.945 81.6636)" fill="#333B42"/>
  <path
    d="M154.93 107.68C165.038 107.68 172.577 99.6417 173.434 93.1718C174.29 86.7018 173.434 76.3106 173.434 76.3106L148.761 63.7627L135.226 72.1933C134.369 73.6964 135.226 83.7609 135.226 83.7609C135.226 83.7609 135.055 107.68 154.93 107.68Z"
    fill="#F9BEA7"/>
  <path
    d="M173.434 92.3545C172.577 99.189 165.038 107.68 154.929 107.68C153.053 107.68 151.355 107.455 149.818 107.047C152.864 107.095 163.088 106.748 167.295 100.22C168.333 98.6101 172.268 89.5658 169.524 84.4225C168.791 83.0483 168.499 82.2475 168.557 80.533C168.557 80.533 163.663 80.4147 156.804 76.5572C151.169 73.388 149.259 69.9158 148.091 67.7929C147.837 67.3318 147.619 66.9344 147.405 66.6175L156.878 65.6489L173.434 74.5433C173.434 74.5433 174.29 85.52 173.434 92.3545Z"
    fill="#DF9B78"/>
  <path d="M171.067 81.3204C171.205 80.223 171.067 78.0625 173.468 78.0625L176.383 83.721C175.811 84.3497 174.428 85.5043 173.468 85.0928C172.268 84.5784 170.896 82.6922 171.067 81.3204Z"
    fill="black"/>
  <path d="M153.773 94.5439C153.773 94.5439 152.449 95.136 150.574 95C148.699 94.8641 147.266 94.0722 147.266 94.0722" stroke="#CC886E" stroke-width="2"/>
  <path d="M157.085 77.0679C157.085 77.0679 158.592 76.7613 160.331 77.475C162.07 78.1888 163.12 79.545 163.12 79.545" stroke="#222073" stroke-width="3"/>
  <path d="M141.314 77.8267C141.314 77.8267 142.405 76.4789 144.264 76.201C146.123 75.9232 147.767 76.8623 147.767 76.8623" stroke="#222073" stroke-width="3"/>
  <ellipse rx="2.22911" ry="2.05764" transform="matrix(-1 0 0 1 160.436 90.2368)" fill="#FF9C72"/>
  <ellipse rx="2.22911" ry="2.05764" transform="matrix(-1 0 0 1 142.261 87.8364)" fill="#FF9C72"/>
  <path d="M152.441 89.0067C152.441 89.0067 152.787 87.2999 150.939 87.0609C149.091 86.8219 148.868 88.5446 148.868 88.5446" stroke="#CC886E"/>
  <path d="M154.246 80.7601C154.246 80.7601 154.413 78.7644 151.977 78.6311C149.541 78.4978 149.357 80.2454 149.357 80.2454" stroke="white" stroke-width="2"/>
  <path
    d="M171.63 82.8993C171.328 84.384 172.136 85.802 173.435 86.0665C174.734 86.3309 176.033 85.3416 176.335 83.8569C176.637 82.3721 175.829 80.9541 174.53 80.6897C173.231 80.4252 171.932 81.4145 171.63 82.8993Z"
    fill="#EFC6B0"/>
  <path
    d="M156.369 81.3323C156.428 82.2793 157.244 82.9986 158.191 82.9391L158.331 82.9303C159.278 82.8708 159.997 82.0549 159.938 81.108C159.878 80.1611 159.063 79.4417 158.116 79.5012L157.975 79.51C157.028 79.5696 156.309 80.3854 156.369 81.3323Z"
    fill="black"/>
  <path
    d="M146.844 80.883C147.117 80.0421 146.657 79.1386 145.816 78.8651L145.738 78.8395C144.897 78.5659 143.993 79.0259 143.72 79.8668C143.446 80.7078 143.906 81.6112 144.747 81.8848L144.826 81.9104C145.667 82.1839 146.57 81.7239 146.844 80.883Z"
    fill="black"/>
  <path
    d="M154.578 81.0857C154.416 83.9065 156.572 86.3244 159.393 86.4862C162.213 86.648 164.631 84.4925 164.793 81.6718L164.917 79.508C165.079 76.6872 162.924 74.2693 160.103 74.1075C157.282 73.9456 154.864 76.1011 154.702 78.9219L154.578 81.0857Z"
    stroke="white" stroke-width="2"/>
  <path
    d="M149.162 78.1448C149.323 75.4443 147.264 73.1247 144.563 72.9638C141.863 72.8029 139.543 74.8617 139.383 77.5621L139.228 80.1482C139.068 82.8487 141.126 85.1683 143.827 85.3292C146.527 85.4901 148.847 83.4313 149.008 80.7309L149.162 78.1448Z"
    stroke="white" stroke-width="2"/>
  <path
    d="M160.765 99.76C161.413 99.6245 162.049 100.041 162.185 100.69C162.32 101.338 161.904 101.974 161.255 102.11L159.375 102.502C159.335 102.511 159.294 102.517 159.254 102.521C158.649 102.585 158.082 102.181 157.955 101.573C157.82 100.924 158.236 100.288 158.885 100.153L160.765 99.76Z"
    fill="#6C6363"/>
  <path
    d="M161.98 100.228C162.078 100.361 162.149 100.517 162.185 100.689C162.32 101.338 161.904 101.974 161.255 102.11L159.375 102.502C159.07 102.566 158.768 102.508 158.519 102.36C158.421 102.227 158.35 102.071 158.314 101.899C158.179 101.25 158.595 100.614 159.244 100.478L161.124 100.086C161.429 100.022 161.731 100.08 161.98 100.228Z"
    fill="#AEB2BA"/>
  <ellipse cx="147.526" cy="62.2162" rx="7.1134" ry="7.1134" fill="#C4C4C4"/>
  <ellipse cx="151.856" cy="56.6493" rx="7.1134" ry="7.1134" fill="#C4C4C4"/>
  <ellipse cx="175.979" cy="72.1132" rx="7.1134" ry="7.1134" fill="#C4C4C4"/>
  <circle cx="176.907" cy="81.0823" r="4.3299" fill="#C4C4C4"/>
  <circle cx="175.979" cy="86.3402" r="2.16495" fill="#C4C4C4"/>
  <circle cx="167.32" cy="62.2162" r="11.4433" fill="#C4C4C4"/>
  <ellipse cx="133.299" cy="73.3502" rx="4.02062" ry="4.02062" fill="#C4C4C4"/>
  <ellipse cx="155.258" cy="64.9999" rx="2.47423" ry="2.47423" fill="#C4C4C4"/>
  <circle cx="159.278" cy="53.5566" r="3.40206" fill="#C4C4C4"/>
  <circle cx="169.794" cy="73.9688" r="4.63918" fill="#C4C4C4"/>
  <ellipse cx="139.485" cy="63.4534" rx="9.58763" ry="8.96907" fill="#C4C4C4"/>
  <path fill-rule="evenodd" clip-rule="evenodd"
    d="M155.026 48.8016C156.274 47.7369 158.132 47.0618 160.206 47.0618C162.475 47.0618 164.484 47.8693 165.72 49.1107C166.441 48.9837 167.182 48.9174 167.938 48.9174C174.941 48.9174 180.619 54.5947 180.619 61.5978C180.619 63.1862 180.326 64.7064 179.793 66.1076C181.777 67.3699 183.093 69.5879 183.093 72.1133C183.093 74.5678 181.85 76.7319 179.959 78.0104C180.748 78.7948 181.237 79.8815 181.237 81.0824C181.237 83.1393 179.803 84.8611 177.88 85.3026C178.048 85.6107 178.144 85.9642 178.144 86.3401C178.144 87.3421 177.464 88.185 176.54 88.4319C176.769 88.7016 176.907 89.0511 176.907 89.4329C176.907 90.2869 176.215 90.9793 175.361 90.9793C174.507 90.9793 173.814 90.2869 173.814 89.4329C173.814 88.832 174.157 88.3111 174.658 88.0551C174.145 87.6592 173.814 87.0383 173.814 86.3401C173.814 85.6925 174.099 85.1114 174.549 84.7146C173.362 83.9424 172.577 82.6041 172.577 81.0824C172.577 80.2026 172.84 79.3842 173.29 78.7009C172.847 78.5199 172.426 78.2954 172.033 78.0328C171.369 78.3995 170.606 78.6082 169.794 78.6082C167.233 78.6082 165.156 76.5326 165.155 73.9718C161.347 73.119 158.186 70.5535 156.523 67.1265C156.153 67.3473 155.72 67.4741 155.258 67.4741C154.43 67.4741 153.697 67.0675 153.248 66.4431C151.952 68.1944 149.871 69.3298 147.526 69.3298C147.269 69.3298 147.015 69.3162 146.765 69.2896C145.007 71.2075 142.397 72.4226 139.485 72.4226C138.675 72.4226 137.889 72.3287 137.138 72.152C137.256 72.5305 137.32 72.933 137.32 73.3504C137.32 75.571 135.519 77.371 133.299 77.371C131.078 77.371 129.278 75.571 129.278 73.3504C129.278 71.4576 130.586 69.8702 132.348 69.443C130.824 67.855 129.897 65.7555 129.897 63.4535C129.897 58.5 134.189 54.4844 139.485 54.4844C140.692 54.4844 141.848 54.6934 142.912 55.0746C143.242 50.9361 146.705 47.6803 150.928 47.6803C152.425 47.6803 153.826 48.0893 155.026 48.8016ZM155.288 62.4793C155.264 62.495 155.239 62.5106 155.215 62.5261C155.229 62.5258 155.243 62.5257 155.258 62.5257C155.269 62.5257 155.28 62.5258 155.291 62.5259L155.288 62.4793Z"
    fill="#01004E"/>
  <path
    d="M155.026 48.8016C156.274 47.7369 158.132 47.0618 160.206 47.0618C162.486 47.0618 164.504 47.8774 165.739 49.1293C166.509 48.9901 167.303 48.9174 168.114 48.9174C175.362 48.9174 181.237 54.7254 181.237 61.8899C181.237 62.9778 181.102 64.0344 180.846 65.0441C182.933 66.4283 184.309 68.8006 184.309 71.4948C184.309 74.4442 182.66 77.0079 180.235 78.3117C180.861 79.0625 181.237 80.0285 181.237 81.0824C181.237 83.1393 179.803 84.8611 177.88 85.3026C178.048 85.6107 178.144 85.9642 178.144 86.3401C178.144 87.3421 177.464 88.185 176.54 88.4319C176.769 88.7016 176.907 89.0511 176.907 89.4329C176.907 90.2869 176.215 90.9793 175.361 90.9793C174.507 90.9793 173.814 90.2869 173.814 89.4329C173.814 88.832 174.157 88.3111 174.658 88.0551C174.145 87.6592 173.814 87.0383 173.814 86.3401C173.814 85.6925 174.099 85.1114 174.549 84.7146C173.362 83.9424 172.577 82.6041 172.577 81.0824C172.577 80.1324 172.883 79.254 173.402 78.5401C173.002 78.3584 172.62 78.1436 172.26 77.8991C171.545 78.3483 170.7 78.6082 169.794 78.6082C167.425 78.6082 165.47 76.8323 165.189 74.5391C162.003 73.8223 159.257 71.9591 157.42 69.4116C156.753 69.5699 156.022 69.5725 155.289 69.3872C154.035 69.0703 153.047 68.2716 152.521 67.2806C151.237 68.5477 149.473 69.3298 147.526 69.3298C147.269 69.3298 147.015 69.3162 146.765 69.2896C145.007 71.2075 142.397 72.4226 139.485 72.4226C138.675 72.4226 137.889 72.3287 137.138 72.152C137.256 72.5305 137.32 72.933 137.32 73.3504C137.32 75.571 135.519 77.371 133.299 77.371C131.078 77.371 129.278 75.571 129.278 73.3504C129.278 71.4576 130.586 69.8702 132.348 69.443C130.824 67.855 129.897 65.7555 129.897 63.4535C129.897 58.5 134.189 54.4844 139.485 54.4844C140.692 54.4844 141.848 54.6934 142.912 55.0746C143.242 50.9361 146.705 47.6803 150.928 47.6803C152.425 47.6803 153.826 48.0893 155.026 48.8016Z"
    fill="#01004E"/>
  <rect x="165.513" y="79.6714" width="5.33862" height="1.23711" transform="rotate(-2.24479 165.513 79.6714)" fill="white"/>
  <path d="M174.325 86.4644V88.2808C174.325 90.8886 173.495 93.4288 171.955 95.5334V95.5334C170.169 97.9746 167.545 99.6708 164.585 100.297L160.265 101.211" stroke="#545151" stroke-width="2"/>
  <path
    d="M151.592 54.5209C148.844 54.5209 146.217 55.0704 143.804 56.0715C146.745 54.4553 150.086 53.5422 153.628 53.5422C165.438 53.5422 175.011 63.6927 175.011 76.2139C175.011 77.606 174.893 78.9688 174.666 80.2916H172.777C172.907 79.2783 172.975 78.2438 172.975 77.1925C172.975 64.6713 163.401 54.5209 151.592 54.5209Z"
    fill="#333B42"/>
  <path
    d="M145.649 55.1731C147.637 54.5261 149.747 54.1779 151.935 54.1779C163.744 54.1779 173.318 64.3284 173.318 76.8496C173.318 77.9009 173.25 78.9354 173.12 79.9486H174.723C174.913 78.7336 175.011 77.486 175.011 76.2139C175.011 63.6927 165.438 53.5422 153.628 53.5422C150.808 53.5422 148.115 54.1212 145.649 55.1731Z"
    fill="#A1A6AF"/>
  <ellipse rx="3.4294" ry="5.1441" transform="matrix(-1 0 0 1 173.297 82.0064)" fill="#333B42"/>
  <ellipse rx="3.4294" ry="5.1441" transform="matrix(-1 0 0 1 174.325 82.0064)" fill="#AEB2BA"/>
  <ellipse rx="2.05764" ry="3.08646" transform="matrix(-1 0 0 1 174.668 82.0064)" fill="#E7EBF2"/>
  <path d="M144.742 153.598C144.742 152.494 143.847 151.598 142.742 151.598H78.5567V154.072H144.742V153.598Z" fill="url(#paint1_linear_67494_115785)"/>
  <path d="M126.804 151.598C126.804 150.915 126.25 150.361 125.567 150.361H124.948C124.265 150.361 123.711 150.915 123.711 151.598H126.804Z" fill="#939EAE"/>
  <path d="M121.237 151.598C121.237 150.915 120.683 150.361 120 150.361H119.381C118.698 150.361 118.144 150.915 118.144 151.598H121.237Z" fill="#939EAE"/>
  <path d="M115.67 151.598C115.67 150.915 115.116 150.361 114.433 150.361H113.814C113.131 150.361 112.577 150.915 112.577 151.598H115.67Z" fill="#939EAE"/>
  <path d="M110.103 151.598C110.103 150.915 109.549 150.361 108.866 150.361H108.247C107.564 150.361 107.01 150.915 107.01 151.598H110.103Z" fill="#939EAE"/>
  <path d="M104.536 151.598C104.536 150.915 103.982 150.361 103.299 150.361H102.68C101.997 150.361 101.443 150.915 101.443 151.598H104.536Z" fill="#939EAE"/>
  <path d="M98.969 151.598C98.969 150.915 98.4151 150.361 97.7319 150.361H97.1133C96.4301 150.361 95.8762 150.915 95.8762 151.598H98.969Z" fill="#939EAE"/>
  <path d="M93.402 151.598C93.402 150.915 92.8482 150.361 92.1649 150.361H91.5464C90.8631 150.361 90.3093 150.915 90.3093 151.598H93.402Z" fill="#939EAE"/>
  <path d="M87.835 151.598C87.835 150.915 87.2811 150.361 86.5979 150.361H85.9794C85.2961 150.361 84.7422 150.915 84.7422 151.598H87.835Z" fill="#939EAE"/>
  <path d="M162.99 35.6187H117.216C112.775 35.6187 109.175 39.2188 109.175 43.6599V43.6599" stroke="white" stroke-width="1.5" stroke-dasharray="3 3"/>
  <path d="M108.866 65V124.897C108.866 130.42 104.389 134.897 98.866 134.897H77.3196" stroke="white" stroke-width="1.5" stroke-dasharray="3 3"/>
  <ellipse opacity="0.5" cx="103.175" cy="108.849" rx="11.0269" ry="11.0269" fill="white"/>
  <ellipse opacity="0.3" cx="103.175" cy="108.849" rx="23.629" ry="23.629" fill="white"/>
  <path
    d="M67.4227 126.856V75.765C67.4227 72.2111 64.5417 69.3301 60.9878 69.3301H59.8106C56.9068 69.3301 54.5529 71.684 54.5529 74.5878V74.5878C54.5529 77.4916 52.1989 79.8455 49.2951 79.8455H42.673"
    stroke="white" stroke-width="1.5" stroke-dasharray="3 3"/>
  <path
    d="M126.632 117.901C126.389 111.652 120.99 106.862 114.756 107.365L58.8581 111.873C53.944 112.269 50.5544 116.973 51.7333 121.76L57.8169 146.463C58.9173 150.932 62.9251 154.072 67.5268 154.072H117.644C123.32 154.072 127.857 149.354 127.636 143.683L126.632 117.901Z"
    fill="#9398A0"/>
  <path
    d="M125.362 118.021C125.136 112.368 120.27 108.029 114.628 108.448L57.3751 112.707C53.4079 113.002 50.4837 116.54 50.9406 120.491L53.7998 145.221C54.3831 150.266 58.6551 154.072 63.7336 154.072H116.396C122.076 154.072 126.615 149.348 126.388 143.673L125.362 118.021Z"
    fill="#BABDC5"/>
  <rect width="123.711" height="6.18557" rx="3.09278" transform="matrix(-1 0 0 1 185.567 157.784)" fill="#5B4F43"/>
  <rect width="148.454" height="7.42268" rx="3.71134" transform="matrix(-1 0 0 1 197.938 154.072)" fill="#D1AA8E"/>
  <rect width="78.5567" height="4.94845" rx="2.47423" transform="matrix(-1 0 0 1 196.701 155.31)" fill="#F8C6AC"/>
  <rect opacity="0.8" width="4.3299" height="7.42268" transform="matrix(-1 0 0 1 99.5876 154.072)" fill="#A5846D"/>
  <rect opacity="0.8" width="1.85567" height="7.42268" transform="matrix(-1 0 0 1 90.9279 154.072)" fill="#A5846D"/>
  <rect opacity="0.8" width="4.3299" height="7.42268" transform="matrix(-1 0 0 1 66.1856 154.072)" fill="#A5846D"/>
  <rect opacity="0.8" width="10.5155" height="7.42268" transform="matrix(-1 0 0 1 82.8866 154.072)" fill="#A5846D"/>
  <g filter="url(#filter0_d_67494_115785)">
    <path
      d="M184.948 11.1855V24.1752C184.948 26.2164 186.619 27.8865 188.66 27.8865H196.082V33.4535L203.505 27.8865H210.928C212.971 27.8865 214.639 26.2164 214.639 24.1752V11.1855C214.639 9.14422 212.971 7.47412 210.928 7.47412H188.66C186.619 7.47412 184.948 9.14422 184.948 11.1855Z"
      fill="#E53935"/>
  </g>
  <g clip-path="url(#clip1_67494_115785)">
    <path
      d="M199.794 11.4329C203.073 11.4329 205.732 14.0914 205.732 17.371C205.732 20.6506 203.073 23.3092 199.794 23.3092C196.515 23.3092 193.856 20.6506 193.856 17.3704C193.856 14.0914 196.515 11.4329 199.794 11.4329ZM199.794 22.0714C202.39 22.0714 204.495 19.9671 204.495 17.3704C204.495 14.7737 202.39 12.67 199.794 12.67C197.198 12.67 195.092 14.7743 195.092 17.371C195.092 19.9677 197.198 22.0714 199.794 22.0714ZM201.34 17.2164C200.827 17.2164 200.412 16.732 200.412 16.1339C200.412 15.5357 200.828 15.0514 201.34 15.0514C201.852 15.0514 202.268 15.5357 202.268 16.1339C202.268 16.732 201.852 17.2164 201.34 17.2164ZM198.247 17.2164C197.735 17.2164 197.32 16.732 197.32 16.1339C197.32 15.5357 197.735 15.0514 198.247 15.0514C198.76 15.0514 199.175 15.5364 199.175 16.1339C199.175 16.7314 198.76 17.2164 198.247 17.2164ZM197.109 18.1974C197.333 18.0823 197.613 18.1708 197.732 18.3953C197.753 18.4362 198.27 19.3807 199.793 19.3807C201.309 19.3807 201.829 18.4448 201.855 18.396C201.971 18.1702 202.246 18.078 202.476 18.1924C202.705 18.3075 202.798 18.5859 202.683 18.8153C202.652 18.8766 201.911 20.3085 199.793 20.3085C197.675 20.3085 196.935 18.876 196.905 18.8147C196.791 18.5877 196.882 18.3137 197.109 18.1974Z"
      fill="white"/>
  </g>
  <g clip-path="url(#clip2_67494_115785)">
    <g filter="url(#filter1_d_67494_115785)">
      <path
        d="M94.0206 77.3711H79.1753C77.8132 77.3711 76.701 78.4845 76.701 79.8453V88.5051C76.701 89.8659 77.8132 90.9793 79.1753 90.9793H84.1237L89.0722 94.6907V90.9793H94.0206C95.3815 90.9793 96.4949 89.8659 96.4949 88.5051V79.8453C96.4949 78.4845 95.3815 77.3711 94.0206 77.3711ZM81.6495 85.536C80.8986 85.536 80.2887 84.9274 80.2887 84.1752C80.2887 83.4231 80.8973 82.8144 81.6495 82.8144C82.4017 82.8144 83.0103 83.4231 83.0103 84.1752C83.0103 84.9261 82.4004 85.536 81.6495 85.536ZM86.598 85.536C85.847 85.536 85.2371 84.9274 85.2371 84.1752C85.2371 83.4231 85.8458 82.8144 86.598 82.8144C87.3501 82.8144 87.9588 83.4231 87.9588 84.1752C87.9588 84.9261 87.3489 85.536 86.598 85.536ZM91.5464 85.536C90.7955 85.536 90.1856 84.9274 90.1856 84.1752C90.1856 83.4231 90.7942 82.8144 91.5464 82.8144C92.2986 82.8144 92.9072 83.4231 92.9072 84.1752C92.9072 84.9261 92.2973 85.536 91.5464 85.536Z"
        fill="#E53935"/>
    </g>
  </g>
  <rect width="2.47423" height="2.47423" transform="matrix(-1 0 0 1 156.186 27.8867)" fill="white"/>
  <rect width="2.47423" height="2.47423" transform="matrix(-1 0 0 1 102.062 22.9382)" fill="white"/>
  <rect width="2.47423" height="2.47423" transform="matrix(-1 0 0 1 47.0103 116.34)" fill="white"/>
  <rect width="2.47423" height="2.47423" transform="matrix(-1 0 0 1 47.0103 122.526)" fill="#FFEE94"/>
  <rect width="2.47423" height="2.47423" transform="matrix(-1 0 0 1 37.1134 116.34)" fill="#FFEE94"/>
  <rect width="2.47423" height="2.47423" transform="matrix(-1 0 0 1 205.361 48.2991)" fill="#FFEE94"/>
  <rect width="2.47423" height="2.47423" transform="matrix(-1 0 0 1 199.175 119.433)" fill="#FFEE94"/>
  <rect width="2.47423" height="2.47423" transform="matrix(-1 0 0 1 205.361 53.2473)" fill="white"/>
  <rect opacity="0.5" width="2.47423" height="2.47423" transform="matrix(-1 0 0 1 199.175 53.2473)" fill="white"/>
  <rect opacity="0.7" width="2.47423" height="2.47423" transform="matrix(-1 0 0 1 205.361 113.866)" fill="white"/>
  <rect width="2.47423" height="2.47423" transform="matrix(-1 0 0 1 199.175 113.866)" fill="white"/>
  <rect width="2.47423" height="2.47423" transform="matrix(-1 0 0 1 192.99 113.866)" fill="white"/>
  <rect width="2.47423" height="2.47423" transform="matrix(-1 0 0 1 42.0619 116.34)" fill="white"/>
  <rect width="2.47423" height="2.47423" transform="matrix(-1 0 0 1 87.2165 60.0515)" fill="white"/>
  <rect width="2.47423" height="2.47423" transform="matrix(-1 0 0 1 47.0103 110.773)" fill="white"/>
  <path opacity="0.3"
    d="M126.459 148.964C126.534 148.535 126.565 148.092 126.547 147.639L125.204 114.076C125.064 110.58 122.055 107.895 118.565 108.155L54.6012 112.913C53.6998 112.98 52.8855 113.317 52.2299 113.839C59.1741 132.742 89.3223 147.294 126.459 148.964Z"
    fill="white"/>
  <path d="M87.1462 126.248L88.8642 130.643L93.5749 130.368L89.9259 133.36L91.6438 137.755L87.6707 135.209L84.0217 138.201L85.2152 133.635L81.2421 131.09L85.9528 130.814L87.1462 126.248Z"
    fill="white"/>
  <rect x="167.01" y="129.33" width="13.6082" height="3.20733" rx="1.60367" fill="#F5F5F5"/>
  <path d="M165.773 132.996H181.237L180 154.072H167.32L165.773 132.996Z" fill="#E2C792"/>
  <rect x="164.536" y="130.705" width="17.9381" height="2.29095" rx="1.14548" fill="#F5F5F5"/>
  <path
    d="M164.536 112.629L159.924 114.704C158.887 115.171 157.961 115.854 157.209 116.707L154.102 120.228C153.845 120.519 153.526 120.749 153.169 120.902V120.902C152.188 121.323 151.561 122.296 151.582 123.363L151.856 136.753L150 154.072"
    stroke="#A1D1FF"/>
  <ellipse cx="138.866" cy="60.67" rx="5.87629" ry="5.56701" fill="#222073"/>
  <ellipse cx="146.907" cy="59.7423" rx="4.02062" ry="4.02062" fill="#222073"/>
  <ellipse cx="172.491" cy="56.2344" rx="7.44807" ry="3.93771" transform="rotate(41.479 172.491 56.2344)" fill="#222073"/>
  <ellipse cx="163.309" cy="51.0579" rx="4.5098" ry="2.08825" transform="rotate(28.6761 163.309 51.0579)" fill="#222073"/>
  <ellipse cx="154.639" cy="58.8144" rx="1.85567" ry="1.85567" fill="#222073"/>
  <ellipse cx="160.373" cy="101.188" rx="0.618557" ry="0.623204" fill="#545151"/>
  <path d="M170.271 151.882C174.619 151.882 178.144 147.303 178.144 141.656C178.144 138.303 178.026 135.07 177.02 132.996H165.773L167.113 151.25C168.018 151.654 169.064 151.882 170.271 151.882Z"
    fill="#F3D8A2"/>
  <g opacity="0.5" clip-path="url(#clip3_67494_115785)">
    <path opacity="0.5"
      d="M173.558 136.638C174.207 136.081 174.719 135.641 176.109 136.426C176.776 136.803 177.315 136.946 177.763 136.945C178.548 136.945 179.057 136.508 179.496 136.131C179.653 135.996 179.673 135.757 179.542 135.597C179.409 135.437 179.175 135.416 179.018 135.551C178.37 136.108 177.858 136.548 176.468 135.762C174.632 134.726 173.771 135.464 173.08 136.058C172.924 136.193 172.904 136.431 173.035 136.592C173.167 136.752 173.401 136.773 173.558 136.638ZM179.018 137.446C178.37 138.003 177.858 138.444 176.468 137.657C174.632 136.62 173.771 137.359 173.08 137.953C172.924 138.087 172.903 138.327 173.035 138.487C173.167 138.647 173.401 138.668 173.558 138.533C174.207 137.976 174.719 137.536 176.109 138.321C176.776 138.699 177.315 138.84 177.763 138.84C178.548 138.84 179.057 138.404 179.496 138.026C179.653 137.891 179.673 137.652 179.542 137.492C179.41 137.331 179.175 137.311 179.018 137.446ZM179.018 139.341C178.37 139.898 177.858 140.339 176.468 139.553C174.632 138.516 173.771 139.254 173.08 139.848C172.924 139.983 172.903 140.222 173.035 140.382C173.167 140.543 173.401 140.563 173.558 140.428C174.207 139.871 174.719 139.432 176.109 140.216C176.776 140.594 177.315 140.736 177.763 140.736C178.548 140.736 179.057 140.299 179.496 139.921C179.653 139.787 179.673 139.547 179.542 139.387C179.41 139.227 179.175 139.207 179.018 139.341Z"
      fill="#828282"/>
  </g>
  <g clip-path="url(#clip4_67494_115785)">
    <path
      d="M174.012 39.443C174.012 39.443 179.252 35.6619 178.671 31.3345C178.658 31.2402 178.627 31.1764 178.587 31.1355C178.547 31.0947 178.486 31.0628 178.392 31.0502C174.164 30.4556 170.469 35.817 170.469 35.817C167.264 35.4333 167.497 36.0724 166.035 39.5848C165.755 40.2543 166.209 40.4852 166.706 40.2966C167.203 40.1096 168.3 39.6946 168.3 39.6946L170.223 41.6602C170.223 41.6602 169.818 42.784 169.634 43.2924C169.45 43.8016 169.675 44.2655 170.331 43.9797C173.763 42.4833 174.388 42.7223 174.012 39.443ZM174.761 35.0517C174.317 34.5967 174.317 33.8612 174.761 33.4061C175.205 32.9526 175.924 32.9526 176.369 33.4061C176.813 33.8597 176.813 34.596 176.369 35.0517C175.924 35.5053 175.204 35.5053 174.761 35.0517Z"
      fill="white"/>
  </g>
  <g clip-path="url(#clip5_67494_115785)">
    <path
      d="M113.57 50.3602C110.715 50.7734 110.15 50.0515 108.866 48.9177C107.582 50.0515 107.017 50.7734 104.162 50.3602C102.641 57.9363 108.866 60.0517 108.866 60.0517C108.866 60.0517 115.091 57.9363 113.57 50.3602ZM110.396 56.5315L108.866 55.7274L107.337 56.5315L107.629 54.8287L106.392 53.6225L108.101 53.3744L108.866 51.8249L109.631 53.3744L111.34 53.6225L110.103 54.828L110.396 56.5315Z"
      fill="white"/>
  </g>
  <rect x="60.6924" y="37.7834" width="9.27835" height="9.27835" rx="4.63918" fill="#BDE6FA"/>
  <defs>
    <filter id="filter0_d_67494_115785" x="184.948" y="7.47412" width="32.6907" height="28.9795" filterUnits="userSpaceOnUse" color-interpolation-filters="sRGB">
      <feFlood flood-opacity="0" result="BackgroundImageFix"/>
      <feColorMatrix in="SourceAlpha" type="matrix" values="0 0 0 0 0 0 0 0 0 0 0 0 0 0 0 0 0 0 127 0" result="hardAlpha"/>
      <feOffset dx="3" dy="3"/>
      <feColorMatrix type="matrix" values="0 0 0 0 0 0 0 0 0 0 0 0 0 0 0 0 0 0 0.1 0"/>
      <feBlend mode="normal" in2="BackgroundImageFix" result="effect1_dropShadow_67494_115785"/>
      <feBlend mode="normal" in="SourceGraphic" in2="effect1_dropShadow_67494_115785" result="shape"/>
    </filter>
    <filter id="filter1_d_67494_115785" x="76.701" y="77.3711" width="22.7938" height="20.3198" filterUnits="userSpaceOnUse" color-interpolation-filters="sRGB">
      <feFlood flood-opacity="0" result="BackgroundImageFix"/>
      <feColorMatrix in="SourceAlpha" type="matrix" values="0 0 0 0 0 0 0 0 0 0 0 0 0 0 0 0 0 0 127 0" result="hardAlpha"/>
      <feOffset dx="3" dy="3"/>
      <feColorMatrix type="matrix" values="0 0 0 0 0 0 0 0 0 0 0 0 0 0 0 0 0 0 0.1 0"/>
      <feBlend mode="normal" in2="BackgroundImageFix" result="effect1_dropShadow_67494_115785"/>
      <feBlend mode="normal" in="SourceGraphic" in2="effect1_dropShadow_67494_115785" result="shape"/>
    </filter>
    <linearGradient id="paint0_linear_67494_115785" x1="183.711" y1="111.392" x2="175.361" y2="120.979" gradientUnits="userSpaceOnUse">
      <stop stop-color="#5FA4E5"/>
      <stop offset="1" stop-color="#3975AD"/>
    </linearGradient>
    <linearGradient id="paint1_linear_67494_115785" x1="145.052" y1="153.145" x2="111.649" y2="154.072" gradientUnits="userSpaceOnUse">
      <stop stop-color="#777F8B"/>
      <stop offset="1" stop-color="#484A4D"/>
    </linearGradient>
    <clipPath id="clip0_67494_115785">
      <rect width="12.3711" height="12.3711" fill="white" transform="translate(25.3608 72.4229)"/>
    </clipPath>
    <clipPath id="clip1_67494_115785">
      <rect width="12.3711" height="12.3711" fill="white" transform="matrix(-1 0 0 1 205.979 11.1855)"/>
    </clipPath>
    <clipPath id="clip2_67494_115785">
      <rect width="24.7423" height="24.7423" fill="white" transform="translate(74.2268 72.4229)"/>
    </clipPath>
    <clipPath id="clip3_67494_115785">
      <rect width="7.42268" height="7.42268" fill="white" transform="translate(172.577 134.278)"/>
    </clipPath>
    <clipPath id="clip4_67494_115785">
      <rect width="14.8454" height="14.8454" fill="white" transform="translate(165.155 29.7422)"/>
    </clipPath>
    <clipPath id="clip5_67494_115785">
      <rect width="12.3711" height="12.3711" fill="white" transform="translate(102.68 48.2991)"/>
    </clipPath>
  </defs>
</svg>
