<svg width="382" height="175" viewBox="0 0 382 175" fill="none" xmlns="http://www.w3.org/2000/svg">
    <path
            d="M303.755 5.98853C300.999 5.98853 298.764 8.22285 298.764 10.979C298.764 13.7352 300.999 15.9695 303.755 15.9695H307.082C309.838 15.9695 312.072 13.7352 312.072 10.979C312.072 8.22285 309.838 5.98853 307.082 5.98853H303.755Z"
            fill="#9ACBFF"/>
    <path
            d="M176.331 11.1221C176.331 8.36597 178.566 6.13164 181.322 6.13164H288.143C290.899 6.13164 293.133 8.36597 293.133 11.1221C293.133 13.8783 290.899 16.1126 288.143 16.1126H246.351C243.894 16.1126 242.205 19.5017 242.205 21.9581C242.205 23.5823 243.333 25.2851 244.957 25.2851H291.112C299.381 25.2851 306.084 31.9881 306.084 40.2566C306.084 48.5251 299.381 55.2281 291.112 55.2281H286.986C282.994 55.2281 280.436 60.0956 281.423 63.9636C282.049 66.4153 284.095 68.5361 286.625 68.5361H322.719C331.171 68.5361 338.023 75.388 338.023 83.8402C338.023 92.2925 331.171 99.1444 322.719 99.1444H319.554C317.544 99.1444 316.109 101.127 316.109 103.137C316.109 105.72 317.894 108.46 320.477 108.46H328.214C336.483 108.46 343.186 115.163 343.186 123.431C343.186 127.569 347.349 136.82 351.487 136.82H368.176C375.779 136.82 381.942 142.984 381.942 150.587C381.942 158.19 375.779 164.354 368.176 164.354L17.8396 164.354C9.75484 164.354 3.20082 157.8 3.20082 149.715C3.20082 141.63 9.75483 135.076 17.8396 135.076H47.2055C48.5281 135.076 49.4194 133.404 49.4194 132.082C49.4194 129.326 51.6537 127.091 54.4099 127.091H63.3316C65.2085 127.091 66.5778 125.308 66.5778 123.431C66.5778 120.132 64.335 116.445 61.036 116.445H49.6235C42.2737 116.445 36.3155 110.487 36.3155 103.137C36.3155 95.787 42.2737 89.8288 49.6235 89.8288H123.486C126.402 89.8288 128.422 86.7563 128.422 83.8402C128.422 75.388 135.274 68.5361 143.726 68.5361H167.843C170.373 68.5361 172.419 66.4153 173.045 63.9636C174.032 60.0956 171.474 55.2281 167.482 55.2281H151.378C143.11 55.2281 136.407 48.5251 136.407 40.2566C136.407 31.9881 143.11 25.2851 151.378 25.2851C152.485 25.2851 153.247 24.1415 153.109 23.0435C153.065 22.688 153.042 22.3257 153.042 21.9581C153.042 17.1807 156.915 13.3079 161.692 13.3079H174.572C175.616 13.3079 176.331 12.1668 176.331 11.1221Z"
            fill="#9ACBFF"/>
    <path
            d="M13.308 89.8288C5.95819 89.8288 0 95.787 0 103.137C0 110.487 5.95819 116.445 13.308 116.445H17.3004C24.6502 116.445 30.6084 110.487 30.6084 103.137C30.6084 95.787 24.6502 89.8288 17.3004 89.8288H13.308Z"
            fill="#9ACBFF"/>
    <path d="M181.654 45.9126L181.654 74.5248C181.654 81.5071 175.994 87.1674 169.011 87.1673V87.1673" stroke="white"
          stroke-width="1.5" stroke-dasharray="3 3"/>
    <path d="M235.551 45.9125V89.3098C235.551 94.3738 239.656 98.479 244.72 98.479H249.085C251.739 98.479 253.89 96.328 253.89 93.6745V93.6745C253.89 91.0211 256.041 88.8701 258.694 88.8701H270.817"
          stroke="white" stroke-width="1.5" stroke-dasharray="3 3"/>
    <g opacity="0.5">
        <path
                d="M23.6216 0C19.3954 0 15.9695 3.42596 15.9695 7.65209C15.9695 11.8782 19.3954 15.3042 23.6216 15.3042H46.2451C50.4713 15.3042 53.8972 11.8782 53.8972 7.65209C53.8972 3.42596 50.4713 0 46.2451 0H23.6216Z"
                fill="#9ACBFF"/>
        <path
                d="M56.5588 23.9544C49.209 23.9544 43.2508 29.9126 43.2508 37.2624C43.2508 38.086 43.3257 38.8922 43.4689 39.6745C43.7281 41.0901 42.7467 42.5855 41.3076 42.5855H8.65009C4.97519 42.5855 1.99609 45.5646 1.99609 49.2395C1.99609 52.9144 4.97519 55.8935 8.65009 55.8935H13.5768C15.1143 55.8935 16.1381 57.6356 16.0014 59.1669C15.9803 59.4038 15.9695 59.6436 15.9695 59.8859C15.9695 64.2958 19.5444 67.8707 23.9543 67.8707H49.9048C54.3147 67.8707 57.8896 64.2958 57.8896 59.8859C57.8896 59.6436 57.8788 59.4038 57.8577 59.1669C57.721 57.6356 58.7449 55.8935 60.2823 55.8935H75.8554C78.501 55.8935 80.786 54.3496 81.8584 52.1135C82.269 51.2575 83.0586 50.5703 84.008 50.5703H109.125C116.475 50.5703 122.433 44.6121 122.433 37.2624C122.433 29.9126 116.475 23.9544 109.125 23.9544H56.5588Z"
                fill="#9ACBFF"/>
    </g>
    <rect x="115.447" y="168.346" width="196.293" height="6.65399" rx="3.327" fill="#613E2E"/>
    <rect x="53.8975" y="164.354" width="290.114" height="7.98479" rx="3.9924" fill="#CCA08A"/>
    <rect opacity="0.8" x="56.5591" y="165.684" width="142.395" height="5.32319" rx="2.6616" fill="#F0E2DC"/>
    <rect opacity="0.8" x="251.87" y="164.354" width="6.87025" height="7.98479" fill="#8F5F47"/>
    <rect opacity="0.7" x="265.611" y="164.354" width="2.94439" height="7.98479" fill="white"/>
    <rect opacity="0.7" x="300.095" y="164.354" width="2.94439" height="7.98479" fill="white"/>
    <rect opacity="0.8" x="304.869" y="164.354" width="6.87025" height="7.98479" fill="#8F5F47"/>
    <rect opacity="0.8" x="278.37" y="164.354" width="16.6849" height="7.98479" fill="#8F5F47"/>
    <rect width="2.6616" height="2.6616" transform="matrix(-1 0 0 1 217.585 11.3118)" fill="white"/>
    <rect width="2.6616" height="2.6616" transform="matrix(-1 0 0 1 266.389 36.9426)" fill="white"/>
    <rect width="2.6616" height="2.6616" transform="matrix(-1 0 0 1 222.909 11.3118)" fill="white"/>
    <rect width="2.6616" height="2.6616" transform="matrix(-1 0 0 1 271.712 36.9426)" fill="white"/>
    <rect width="2.6616" height="2.6616" transform="matrix(-1 0 0 1 153.042 147.053)" fill="white"/>
    <rect width="2.6616" height="2.6616" transform="matrix(-1 0 0 1 153.042 141.73)" fill="#FDFF8B"/>
    <rect width="2.6616" height="2.6616" transform="matrix(-1 0 0 1 330.038 118.441)" fill="#FDFF8B"/>
    <rect width="2.6616" height="2.6616" transform="matrix(-1 0 0 1 158.365 141.73)" fill="white"/>
    <rect width="2.6616" height="2.6616" transform="matrix(-1 0 0 1 335.361 118.441)" fill="white"/>
    <rect width="2.6616" height="2.6616" transform="matrix(-1 0 0 1 153.042 136.407)" fill="white"/>
    <rect width="2.6616" height="2.6616" transform="matrix(-1 0 0 1 196.293 11.3118)" fill="white"/>
    <rect width="2.6616" height="2.6616" transform="matrix(-1 0 0 1 266.389 43.5967)" fill="#FDFF8B"/>
    <rect width="2.6616" height="2.6616" transform="matrix(-1 0 0 1 206.939 11.3118)" fill="#FDFF8B"/>
    <rect width="2.6616" height="2.6616" transform="matrix(-1 0 0 1 212.262 11.3118)" fill="white"/>
    <path
            d="M363.606 146.458L359.613 144.462C359.426 144.368 359.205 144.368 359.018 144.462L355.271 146.335L351.541 145.091C351.338 145.024 351.115 145.057 350.942 145.183C350.768 145.308 350.666 145.509 350.666 145.723V154.374C350.666 154.626 350.808 154.856 351.033 154.969L355.026 156.965C355.12 157.011 355.222 157.035 355.323 157.035C355.425 157.035 355.528 157.012 355.621 156.965L359.367 155.092L363.097 156.336C363.3 156.403 363.523 156.369 363.697 156.244C363.87 156.118 363.973 155.917 363.973 155.705V147.053C363.974 146.801 363.831 146.571 363.606 146.458ZM355.989 147.465L358.65 146.134V153.961L355.989 155.292V147.465ZM351.996 146.646L354.658 147.533V155.292L351.996 153.961V146.646ZM362.643 154.782L359.981 153.894V146.134L362.643 147.465V154.782Z"
            fill="white"/>
    <rect width="2.6616" height="2.6616" transform="matrix(-1 0 0 1 334.031 153.042)" fill="#FDFF8B"/>
    <rect width="2.6616" height="2.6616" transform="matrix(-1 0 0 1 339.354 153.042)" fill="white"/>
    <rect width="2.6616" height="2.6616" transform="matrix(-1 0 0 1 328.707 153.042)" fill="white"/>
    <rect x="21.9583" y="104.468" width="2.6616" height="2.6616" transform="rotate(-180 21.9583 104.468)" fill="white"/>
    <rect x="68.5361" y="140.399" width="2.6616" height="2.6616" transform="rotate(-180 68.5361 140.399)"
          fill="#FDFF8B"/>
    <rect x="11.3118" y="104.468" width="2.6616" height="2.6616" transform="rotate(-180 11.3118 104.468)"
          fill="#FDFF8B"/>
    <rect x="16.635" y="104.468" width="2.6616" height="2.6616" transform="rotate(-180 16.635 104.468)" fill="white"/>
    <path d="M71.863 164.354V164.354C71.863 156.636 65.6069 150.38 57.8896 150.38L31.2737 150.38" stroke="white"
          stroke-width="1.5" stroke-dasharray="3 3"/>
    <path d="M262.833 164.354L262.833 162.357C262.833 151.7 271.472 143.061 282.129 143.061V143.061" stroke="white"
          stroke-width="1.5" stroke-dasharray="3 3"/>
    <path d="M309.411 103.137L309.411 133.745C309.411 138.89 305.24 143.061 300.095 143.061V143.061" stroke="white"
          stroke-width="1.5" stroke-dasharray="3 3"/>
    <path d="M309.411 116.445L309.411 106.464C309.411 96.5416 301.367 88.4981 291.445 88.4981V88.4981" stroke="white"
          stroke-width="1.5" stroke-dasharray="3 3"/>
    <path d="M222.909 31.3101L191.654 31.3101C186.131 31.3101 181.654 35.7872 181.654 41.3101L181.654 43.3671"
          stroke="white" stroke-width="1.5" stroke-dasharray="3 3"/>
    <path d="M212.262 31.3101L225.551 31.3101C231.074 31.3101 235.551 35.7872 235.551 41.3101L235.551 43.3671"
          stroke="white" stroke-width="1.5" stroke-dasharray="3 3"/>
    <path
            d="M187.643 66.1496C187.643 62.5757 190.927 59.9048 194.426 60.6337L194.539 60.6572C195.256 60.8066 195.997 60.7999 196.711 60.6376V60.6376C199.905 59.9117 202.947 62.3394 202.947 65.6149V67.7312C202.947 71.4831 199.905 74.5246 196.153 74.5246H194.506C190.715 74.5246 187.643 71.4518 187.643 67.6612V66.1496Z"
            fill="#87100F"/>
    <path
            d="M189.639 65.6101C189.639 62.6577 192.352 60.4513 195.242 61.0534L195.336 61.0729C195.928 61.1963 196.54 61.1908 197.13 61.0567V61.0567C199.769 60.457 202.281 62.4625 202.281 65.1683V66.9166C202.281 70.016 199.769 72.5286 196.669 72.5286H195.308C192.177 72.5286 189.639 69.9901 189.639 66.8588V65.6101Z"
            fill="#D02724"/>
    <path
            d="M187.857 67.7518C188.035 62.4334 194.365 59.7686 198.293 63.3593L198.943 63.9538C199.603 64.5574 200.417 64.9668 201.296 65.1368L201.936 65.2608C205.483 65.9473 206.821 70.3181 204.267 72.8724V72.8724C203.422 73.7176 202.275 74.1924 201.08 74.1924H194.087C190.563 74.1924 187.74 71.2736 187.857 67.7518V67.7518Z"
            fill="#87100F"/>
    <rect width="11.9772" height="20.6274" transform="matrix(-1 0 0 1 123.099 139.734)" fill="#A8A7A7"/>
    <rect width="11.9772" height="20.6274" transform="matrix(-1 0 0 1 121.768 139.734)" fill="#BABDC5"/>
    <path d="M131.749 163.991L123.194 160.361H111.312L101.806 163.991V164.354H131.749V163.991Z" fill="#A8A7A7"/>
    <path d="M130.418 163.991L121.863 160.361H109.981L100.475 163.991V164.354H130.418V163.991Z" fill="#BABDC5"/>
    <rect opacity="0.7" x="139.734" y="134.411" width="2.6616" height="2.6616" fill="white"/>
    <path
            d="M156.369 102.427C156.369 97.3365 152.545 93.0584 147.486 92.4896L84.4563 85.4019C78.5955 84.7428 73.4403 89.2729 73.3403 95.1698L72.701 132.891C72.6062 138.48 77.1104 143.061 82.6995 143.061H146.369C151.892 143.061 156.369 138.584 156.369 133.061V102.427Z"
            fill="#9398A0"/>
    <path
            d="M156.369 103.474C156.369 98.3627 152.515 94.0742 147.433 93.5305L86.5223 87.0133C80.6353 86.3834 75.493 90.9779 75.4586 96.8984L75.2487 133.003C75.2164 138.548 79.7029 143.061 85.2485 143.061H146.369C151.892 143.061 156.369 138.584 156.369 133.061V103.474Z"
            fill="#BABDC5"/>
    <path
            d="M155.038 104.776C155.038 99.6769 151.202 95.3945 146.133 94.8361L87.616 88.3893C81.6955 87.7371 76.521 92.3728 76.521 98.3292V131.73C76.521 137.253 80.9981 141.73 86.521 141.73H145.038C150.561 141.73 155.038 137.253 155.038 131.73V104.776Z"
            fill="white"/>
    <rect width="65.8745" height="2.6616" transform="matrix(-1 0 0 1 178.327 161.692)" fill="#50545A"/>
    <path d="M176.331 161.692C176.331 160.957 175.735 160.361 175 160.361H174.335C173.6 160.361 173.004 160.957 173.004 161.692V161.692H176.331V161.692Z"
          fill="#939EAE"/>
    <path d="M170.342 161.692C170.342 160.957 169.746 160.361 169.011 160.361H168.346C167.611 160.361 167.015 160.957 167.015 161.692V161.692H170.342V161.692Z"
          fill="#939EAE"/>
    <path d="M164.354 161.692C164.354 160.957 163.758 160.361 163.023 160.361H162.357C161.622 160.361 161.027 160.957 161.027 161.692V161.692H164.354V161.692Z"
          fill="#939EAE"/>
    <path d="M158.365 161.692C158.365 160.957 157.769 160.361 157.034 160.361H156.369C155.634 160.361 155.038 160.957 155.038 161.692V161.692H158.365V161.692Z"
          fill="#939EAE"/>
    <path d="M152.376 161.692C152.376 160.957 151.781 160.361 151.046 160.361H150.38C149.645 160.361 149.049 160.957 149.049 161.692V161.692H152.376V161.692Z"
          fill="#939EAE"/>
    <path d="M146.388 161.692C146.388 160.957 145.792 160.361 145.057 160.361H144.392C143.657 160.361 143.061 160.957 143.061 161.692V161.692H146.388V161.692Z"
          fill="#939EAE"/>
    <path d="M140.399 161.692C140.399 160.957 139.803 160.361 139.068 160.361H138.403C137.668 160.361 137.072 160.957 137.072 161.692V161.692H140.399V161.692Z"
          fill="#939EAE"/>
    <path d="M134.411 161.692C134.411 160.957 133.815 160.361 133.08 160.361H132.414C131.679 160.361 131.084 160.957 131.084 161.692V161.692H134.411V161.692Z"
          fill="#939EAE"/>
    <path d="M128.422 161.692C128.422 160.957 127.826 160.361 127.091 160.361H126.426C125.691 160.361 125.095 160.957 125.095 161.692V161.692H128.422V161.692Z"
          fill="#939EAE"/>
    <path d="M122.434 161.692C122.434 160.957 121.838 160.361 121.103 160.361H120.437C119.702 160.361 119.107 160.957 119.107 161.692V161.692H122.434V161.692Z"
          fill="#939EAE"/>
    <path
            d="M184.045 118.202C185.064 114.384 188.386 111.199 193.091 111.14L230.627 110.662C233.239 110.629 235.541 111.568 237.287 113.088C238.467 113.878 239.451 114.993 240.089 116.376L245.239 127.545L251.279 114.154C252.034 112.479 254.005 111.734 255.68 112.489L262.955 115.771C264.629 116.527 265.375 118.497 264.619 120.172L251.9 148.369C251.81 148.569 251.712 148.764 251.606 148.952C250.814 150.426 249.554 151.666 247.917 152.42C243.912 154.267 239.169 152.518 237.322 148.513L232.947 139.024C231.264 143.252 230.689 147.851 231.294 152.384L232.889 164.353H192.965L195.241 151.026C196.114 145.913 195.382 140.748 193.277 136.184L186.364 151.175C184.518 155.179 179.774 156.929 175.77 155.082C174.133 154.327 172.872 153.088 172.081 151.613C171.975 151.425 171.877 151.231 171.786 151.031L159.067 122.833C158.312 121.158 159.057 119.188 160.732 118.433L168.007 115.151C169.682 114.396 171.652 115.141 172.408 116.816L178.448 130.206L183.598 119.038C183.732 118.747 183.881 118.468 184.045 118.202Z"
            fill="#5D7495"/>
    <path
            d="M168.622 115.821C169.114 115.59 169.325 115.004 169.093 114.512V114.512C168.631 113.528 167.459 113.106 166.475 113.568L159.924 116.649C158.94 117.112 158.518 118.284 158.98 119.268V119.268C159.211 119.759 159.797 119.971 160.289 119.739L168.622 115.821Z"
            fill="#E28A8A"/>
    <path
            d="M263.3 117.198C263.801 117.408 264.378 117.172 264.588 116.671V116.671C265.008 115.669 264.536 114.515 263.533 114.095L256.857 111.297C255.854 110.877 254.701 111.349 254.281 112.351V112.351C254.071 112.853 254.307 113.429 254.808 113.639L263.3 117.198Z"
            fill="#E28A8A"/>
    <ellipse rx="3.6891" ry="5.53366" transform="matrix(-1 0 0 1 191.456 93.1152)" fill="#A1A6AF"/>
    <ellipse rx="3.6891" ry="5.53366" transform="matrix(-1 0 0 1 192.563 93.1152)" fill="#333B42"/>
    <path d="M205.812 119.556L217.746 118.812L215.461 136.856H209.139L205.812 119.556Z" fill="#E28A8A"/>
    <path
            d="M203.617 107.734C203.617 107.734 203.036 111.119 201.588 112.161C204.039 116.171 208.474 142.179 209.225 148.204C211.808 146.728 211.399 143.955 213.797 144.508C211.801 136.191 205.461 110.132 203.617 107.734Z"
            fill="url(#paint0_linear_67467_554076)"/>
    <path
            d="M222.616 106.997C222.616 106.997 223.169 109.21 225.198 110.501C221.14 114.559 210.227 157.898 208.936 164.353C205.941 164.353 205.786 163.431 202.282 164.353C204.2 155.942 220.033 109.579 222.616 106.997Z"
            fill="#DAE9F3"/>
    <path
            d="M211.267 120.07C220.732 120.07 230.745 113.221 231.667 107.134C232.59 101.047 231.667 91.271 231.667 91.271L205.106 79.4658L190.534 87.3974C189.612 88.8116 190.204 99.9277 190.204 99.9277C190.204 99.9277 193.249 119.095 211.267 120.07Z"
            fill="#FFD3C1"/>
    <path
            d="M204.553 81.0279C205.809 83.1597 207.864 86.6463 213.926 89.8287C221.304 93.7023 226.568 93.8211 226.568 93.8211C226.507 95.5427 226.821 96.3468 227.609 97.7267C230.561 102.891 226.328 111.973 225.211 113.59C222.281 117.833 216.64 119.476 212.136 120.093C222.585 119.294 230.757 113.142 231.667 107.134C232.59 101.047 231.667 91.2707 231.667 91.2707L205.585 79.6787L204.588 79.7739L204.002 80.1221C204.174 80.3855 204.354 80.6896 204.553 81.0279Z"
            fill="#DB9E7F"/>
    <path d="M229.269 92.7468C229.417 91.5663 229.269 89.2422 231.852 89.2422L234.988 95.3292C234.373 96.0055 232.885 97.2475 231.852 96.8048C230.561 96.2515 229.085 94.2225 229.269 92.7468Z"
          fill="black"/>
    <path d="M212.026 109.401C212.026 109.401 210.216 107.917 207.935 107.7C205.653 107.484 204.106 108.65 204.106 108.65"
          stroke="#EDAD8B" stroke-width="2"/>
    <path d="M209.232 101.015C209.232 101.015 209.554 99.5687 207.566 99.3116C205.578 99.0544 205.389 100.518 205.389 100.518"
          stroke="#E3A887"/>
    <path
            d="M229.875 94.4449C229.55 96.0421 230.419 97.5675 231.817 97.8519C233.214 98.1364 234.611 97.0722 234.936 95.475C235.261 93.8778 234.391 92.3524 232.994 92.068C231.596 91.7835 230.2 92.8477 229.875 94.4449Z"
            fill="#EFC6B0"/>
    <path
            d="M206.476 62.2654L199.243 65.6314C194.447 80.3879 222.669 92.7463 226.727 91.6396C230.785 90.5329 232.956 94.8205 237.096 89.1959C242.221 82.2324 235.95 76.8832 233.038 70.3814C229.745 63.028 220.495 62.2654 216.068 60.4209C212.527 58.9452 208.198 61.0357 206.476 62.2654Z"
            fill="#87100F"/>
    <path
            d="M199.036 66.3449C195.353 80.7838 222.734 92.7284 226.727 91.6396C228.19 91.2406 229.407 91.5426 230.56 91.8286C231.826 92.1425 233.014 92.4371 234.362 91.7645C234.649 91.4504 234.945 91.0882 235.251 90.6715C239.111 85.4268 236.507 81.0978 233.742 76.5025C232.835 74.9965 231.912 73.4619 231.193 71.857C228.656 66.1904 222.58 64.4377 217.901 63.0876C216.508 62.6857 215.239 62.3196 214.223 61.8965C210.682 60.4208 206.353 62.5113 204.632 63.741L199.036 66.3449Z"
            fill="#D02724"/>
    <path
            d="M196.569 67.4726C199.009 66.2214 200.381 69.6622 200.762 71.539C203.049 73.7286 205.219 76.231 204.914 79.9845C204.609 83.7381 197.1 90.033 191.383 88.1562C185.665 86.2794 187.802 83.4253 185.896 79.9845C183.99 76.5438 193.52 69.0366 196.569 67.4726Z"
            fill="#D02724"/>
    <path
            d="M271.74 102.566C271.869 102.457 272.057 102.453 272.19 102.558C272.224 102.585 272.253 102.618 272.275 102.655L272.367 102.807C272.688 103.342 272.594 104.028 272.139 104.455L268.31 108.056C268.499 108.071 268.686 108.087 268.87 108.105C269.886 108.206 270.909 107.912 271.752 107.337C271.926 107.218 272.112 107.096 272.31 106.97C276.619 104.225 281.448 102.646 281.936 103.601C282.919 105.306 280.945 108.313 276.635 111.057C275.419 111.831 274.396 112.295 273.543 112.542C271.909 113.147 269.266 113.459 266.285 113.459C261.324 113.459 257.313 111.252 257.313 109.611C257.313 108.073 260.83 107.986 265.351 107.981L271.74 102.566Z"
            fill="#DB9E7F"/>
    <path
            d="M271.202 102.439C271.542 102.219 271.994 102.288 272.252 102.6C272.534 102.941 272.487 103.445 272.147 103.727L268.357 106.865C268.579 106.881 268.798 106.899 269.013 106.919C269.946 107.007 270.883 106.755 271.68 106.263C271.875 106.142 272.084 106.018 272.31 105.889C276.619 103.432 281.47 102.705 281.958 103.561C282.445 104.416 280.945 107.092 276.635 109.549C275.913 109.961 275.258 110.275 274.667 110.508C274.462 110.589 274.264 110.685 274.068 110.786C272.515 111.582 269.611 112.117 266.285 112.117C261.324 112.117 257.302 110.926 257.302 109.456C257.302 108.18 260.331 107.114 264.374 106.855C264.388 106.845 264.402 106.835 264.416 106.826L271.202 102.439Z"
            fill="#FFD3C1"/>
    <path
            d="M151.702 103.635C151.59 103.507 151.405 103.475 151.257 103.559C151.22 103.58 151.186 103.608 151.159 103.641L151.045 103.778C150.647 104.258 150.637 104.951 151.021 105.442L154.264 109.579C154.075 109.565 153.887 109.553 153.702 109.543C152.683 109.49 151.716 109.045 150.969 108.349C150.815 108.205 150.65 108.056 150.474 107.902C146.627 104.539 142.092 102.249 141.466 103.12C140.236 104.657 141.735 107.927 145.582 111.29C146.666 112.238 147.608 112.852 148.414 113.224C149.938 114.069 152.503 114.776 155.451 115.226C160.355 115.974 164.652 114.398 164.9 112.775C165.132 111.255 161.669 110.638 157.2 109.951L151.702 103.635Z"
            fill="#DB9E7F"/>
    <path
            d="M152.252 103.589C151.949 103.32 151.492 103.321 151.189 103.591C150.859 103.885 150.83 104.39 151.124 104.72L154.397 108.395C154.175 108.376 153.956 108.361 153.74 108.349C152.805 108.295 151.917 107.904 151.203 107.297C151.029 107.149 150.84 106.995 150.637 106.833C146.747 103.754 142.061 102.304 141.45 103.076C140.839 103.848 141.919 106.72 145.809 109.799C146.461 110.315 147.06 110.724 147.61 111.044C147.8 111.154 147.981 111.28 148.16 111.408C149.575 112.43 152.365 113.397 155.653 113.899C160.557 114.647 164.713 114.076 164.935 112.623C165.127 111.362 162.294 109.851 158.336 108.985C158.324 108.973 158.311 108.961 158.298 108.95L152.252 103.589Z"
            fill="#FFD3C1"/>
    <path opacity="0.5"
          d="M101.708 108.906C101.762 108.082 102.485 107.465 103.308 107.542L133.109 110.338C133.762 110.399 134.247 110.969 134.204 111.623V111.623C134.16 112.296 133.575 112.803 132.903 112.752L103.059 110.463C102.258 110.401 101.656 109.707 101.708 108.906V108.906Z"
          fill="#D5DCE3"/>
    <path opacity="0.5"
          d="M111.634 102.653C111.717 101.828 112.471 101.238 113.292 101.355L133.285 104.204C133.93 104.296 134.388 104.881 134.323 105.53V105.53C134.254 106.206 133.645 106.694 132.971 106.614L112.915 104.251C112.124 104.158 111.553 103.447 111.634 102.653V102.653Z"
          fill="#D5DCE3"/>
    <path opacity="0.5"
          d="M101.812 121.376C101.827 120.551 102.52 119.9 103.345 119.939L133.245 121.329C133.9 121.359 134.412 121.905 134.4 122.561V122.561C134.388 123.235 133.827 123.77 133.153 123.75L103.234 122.868C102.431 122.845 101.797 122.179 101.812 121.376V121.376Z"
          fill="#D5DCE3"/>
    <path opacity="0.5"
          d="M101.819 115.299C101.846 114.473 102.549 113.833 103.373 113.882L133.251 115.686C133.905 115.726 134.409 116.279 134.388 116.934V116.934C134.367 117.608 133.799 118.135 133.125 118.106L103.221 116.81C102.419 116.775 101.794 116.101 101.819 115.299V115.299Z"
          fill="#D5DCE3"/>
    <path opacity="0.5"
          d="M101.807 127.469C101.809 126.644 102.494 125.983 103.319 126.009L133.236 126.958C133.891 126.978 134.411 127.517 134.409 128.173V128.173C134.407 128.847 133.854 129.39 133.18 129.38L103.251 128.94C102.448 128.928 101.804 128.272 101.807 127.469V127.469Z"
          fill="#D5DCE3"/>
    <path opacity="0.5"
          d="M101.805 133.479C101.8 132.653 102.477 131.986 103.303 132.004L133.228 132.648C133.883 132.662 134.409 133.195 134.413 133.851V133.851C134.418 134.525 133.871 135.074 133.196 135.071L103.264 134.935C102.461 134.931 101.811 134.282 101.805 133.479V133.479Z"
          fill="#D5DCE3"/>
    <g clip-path="url(#clip0_67467_554076)">
        <path
                d="M118.655 105.799C112.657 105.799 107.795 110.661 107.795 116.659C107.795 122.657 112.657 127.519 118.655 127.519C124.652 127.519 129.515 122.657 129.515 116.659C129.515 110.661 124.652 105.799 118.655 105.799ZM110.057 116.659C110.057 111.911 113.906 108.062 118.654 108.062C120.723 108.062 122.62 108.794 124.103 110.011L112.006 122.108C110.789 120.623 110.057 118.728 110.057 116.659ZM118.654 125.254C116.586 125.254 114.689 124.524 113.208 123.307L125.304 111.211C126.52 112.695 127.252 114.59 127.252 116.659C127.252 121.406 123.402 125.254 118.654 125.254Z"
                fill="#F0C6CA"/>
    </g>
    <path opacity="0.5"
          d="M102.47 101.734C102.566 99.8754 104.217 98.4871 106.065 98.7122L106.815 98.8036C108.413 98.9982 109.615 100.355 109.615 101.965V101.965C109.615 103.788 108.087 105.239 106.267 105.145L105.512 105.106C103.741 105.015 102.379 103.505 102.47 101.734V101.734Z"
          fill="#D5DCE3"/>
    <path
            d="M234.449 76.2129C232.077 72.2145 236.169 67.2838 240.802 66.9017V66.9017V66.9017C245.109 66.5465 250.599 67.0777 250.894 71.3885L251.3 77.3314C251.59 81.5799 248.048 85.0996 243.802 84.7828L242.811 84.7089C239.959 84.4962 237.448 82.7502 236.255 80.1506L234.449 76.2129V76.2129Z"
            fill="#87100F"/>
    <path
            d="M234.195 75.2077C231.977 71.468 235.804 66.8565 240.137 66.4991V66.4991V66.4991C244.165 66.1669 249.3 66.6637 249.575 70.6955L249.955 76.2537C250.226 80.2272 246.914 83.519 242.942 83.2228L242.016 83.1537C239.348 82.9547 237 81.3217 235.884 78.8904L234.195 75.2077V75.2077Z"
            fill="#D02724"/>
    <path d="M232.89 73.8591C244.867 90.8268 253.221 78.5169 249.525 69.8667" stroke="#87100F" stroke-width="2"/>
    <path d="M233.222 72.5285C244.201 85.1711 249.525 78.8498 249.192 68.5361" stroke="#87100F"/>
    <path
            d="M204.901 143.393C204.753 143.967 204.232 144.392 203.612 144.392C202.877 144.392 202.281 143.796 202.281 143.061C202.281 142.326 202.877 141.73 203.612 141.73C204.232 141.73 204.753 142.154 204.901 142.728H216.962C217.11 142.154 217.631 141.73 218.251 141.73C218.986 141.73 219.582 142.326 219.582 143.061C219.582 143.796 218.986 144.392 218.251 144.392C217.631 144.392 217.11 143.967 216.962 143.393H204.901Z"
            fill="#D02724"/>
    <path
            d="M204.765 151.711C204.535 152.109 204.105 152.376 203.612 152.376C202.877 152.376 202.281 151.781 202.281 151.046C202.281 150.311 202.877 149.715 203.612 149.715C204.347 149.715 204.943 150.311 204.943 151.046H216.92C216.92 150.311 217.516 149.715 218.251 149.715C218.986 149.715 219.582 150.311 219.582 151.046C219.582 151.781 218.986 152.376 218.251 152.376C217.758 152.376 217.328 152.109 217.098 151.711H204.765Z"
            fill="#D02724"/>
    <g clip-path="url(#clip1_67467_554076)">
        <path
                d="M280.529 84.6361L280.826 85.5484C281.071 85.3381 281.381 85.1498 281.785 85.0194C282.177 84.8916 282.524 84.8198 282.837 84.7785L282.551 83.8982C282.234 83.9441 281.885 84.018 281.5 84.1431C281.115 84.2682 280.798 84.4425 280.529 84.6361ZM281.146 86.5358L281.442 87.4481C281.688 87.2378 281.998 87.0495 282.401 86.9191C282.794 86.7913 283.141 86.7195 283.454 86.6782L283.168 85.7979C282.851 85.8438 282.502 85.9177 282.117 86.0428C281.732 86.1672 281.415 86.3415 281.146 86.5358ZM281.763 88.4349L282.06 89.3471C282.306 89.1369 282.616 88.9486 283.019 88.8182C283.411 88.6904 283.758 88.6185 284.071 88.5773L283.785 87.697C283.469 87.7429 283.119 87.8167 282.734 87.9418C282.349 88.0662 282.032 88.2412 281.763 88.4349ZM277.064 89.8801L277.35 90.7605C277.628 90.6101 277.95 90.4643 278.343 90.3373C278.746 90.2062 279.108 90.1762 279.43 90.2022L279.133 89.2899C278.801 89.2912 278.442 89.3365 278.058 89.4609C277.673 89.586 277.347 89.7311 277.064 89.8801ZM275.83 86.0814L276.116 86.9617C276.393 86.8113 276.716 86.6663 277.109 86.5385C277.512 86.4074 277.873 86.3775 278.195 86.4034L277.899 85.4905C277.567 85.4925 277.209 85.5371 276.824 85.6622C276.439 85.7873 276.113 85.9323 275.83 86.0814ZM276.447 87.9811L276.733 88.8614C277.01 88.711 277.333 88.5653 277.726 88.4382C278.129 88.3071 278.49 88.2772 278.812 88.3031L278.516 87.3902C278.184 87.3915 277.825 87.4368 277.441 87.5612C277.056 87.6863 276.729 87.832 276.447 87.9811ZM280.841 82.1169C279.694 82.4895 279.096 83.2827 278.81 83.8197C278.263 83.5535 277.312 83.2641 276.166 83.6367C274.487 84.1823 273.525 85.3847 273.525 85.3847L276.25 93.7601C276.334 94.0176 276.68 94.0775 276.834 93.8552C277.166 93.3768 277.805 92.752 279.001 92.3634C280.144 91.9921 280.977 92.3993 281.433 92.748C281.614 92.8864 281.874 92.7879 281.94 92.5697C282.108 92.0194 282.544 91.2123 283.677 90.8443C284.874 90.455 285.759 90.5855 286.309 90.7778C286.565 90.8669 286.808 90.6167 286.725 90.3592L284.005 81.9792C284.005 81.9792 282.52 81.572 280.841 82.1169ZM280.766 91.33C280.221 91.1677 279.501 91.0918 278.676 91.3593C277.843 91.6295 277.26 91.9908 276.88 92.2935L274.721 85.6515C274.959 85.4133 275.51 84.9582 276.492 84.6394C277.416 84.3393 278.174 84.5962 278.674 84.891L280.766 91.33ZM285.353 89.5408C284.867 89.5195 284.183 89.5701 283.35 89.8409C282.525 90.109 281.987 90.5941 281.642 91.0452L279.55 84.6062C279.78 84.0739 280.242 83.4204 281.167 83.1203C282.148 82.8016 282.862 82.8455 283.194 82.8981L285.353 89.5408Z"
                fill="white"/>
    </g>
    <path opacity="0.6" fill-rule="evenodd" clip-rule="evenodd"
          d="M214.54 105.811C210.435 100.797 211.516 97.2021 213.398 95.3096L218.894 96.2851C218.107 97.0764 216.6 100.349 218.9 103.157C220.86 105.552 221.401 107.887 221.062 109.91C220.735 111.858 219.618 113.367 218.523 114.232L218.496 114.253L218.467 114.274C218.015 114.612 217.398 115.335 217.226 116.228C217.077 116.997 217.445 118.093 217.65 118.829L216.778 119.115L215.44 119.48L214.058 119.789L212.515 120.035L212.101 120.063C212.069 120.015 211.246 118.108 211.597 115.575C212.004 113.466 213.537 112.102 214.743 111.188C214.988 110.987 215.643 110.071 215.78 109.252C215.908 108.491 215.782 107.327 214.54 105.811Z"
          fill="#6BB7FE"/>
    <path opacity="0.6" fill-rule="evenodd" clip-rule="evenodd"
          d="M195.708 107.717C194.819 109.13 194.902 109.25 194.902 111.043L195.549 111.929L196.467 113.04L197.696 114.336L198.856 115.355C199.161 112.326 198.786 111.674 200.226 109.824C202.076 108.081 203.07 107.744 202.522 105.371C201.895 103.266 200.251 102.373 200.75 99.0952C201.009 97.393 203.424 95.7958 204.942 94.3122L201.612 94.2465L198.792 94.1768C198.394 94.5666 198.073 94.861 197.811 95.0967C195.933 96.7812 195.411 99.727 196.185 102.128V102.128C196.304 102.498 196.935 104.959 197.072 105.778C197.2 106.539 196.95 106.2 195.708 107.717Z"
          fill="#6BB7FE"/>
    <g clip-path="url(#clip2_67467_554076)">
        <path fill-rule="evenodd" clip-rule="evenodd"
              d="M26.246 149.955C25.6592 146.677 24.347 145.71 23.649 145.71C22.5597 145.71 22.2803 146.52 19.962 146.548C17.6438 146.52 17.3643 145.71 16.275 145.71C15.577 145.71 14.2642 146.677 13.6773 149.955C13.3426 151.826 12.9793 154.619 13.845 154.955C14.9223 155.372 15.2876 154.329 16.4707 153.447C17.6717 152.553 18.2479 152.343 19.962 152.343C21.6761 152.343 22.2523 152.553 23.4534 153.447C24.6364 154.328 25.0017 155.372 26.079 154.955C26.9447 154.619 26.5814 151.827 26.246 149.955ZM17.3004 150.38C16.5651 150.38 15.9696 149.784 15.9696 149.049C15.9696 148.314 16.5651 147.719 17.3004 147.719C18.0357 147.719 18.6312 148.314 18.6312 149.049C18.6312 149.784 18.035 150.38 17.3004 150.38ZM21.9582 150.38C21.5902 150.38 21.2928 150.083 21.2928 149.715C21.2928 149.347 21.5902 149.049 21.9582 149.049C22.3262 149.049 22.6236 149.347 22.6236 149.715C22.6236 150.083 22.3262 150.38 21.9582 150.38ZM23.289 149.049C22.921 149.049 22.6236 148.752 22.6236 148.384C22.6236 148.016 22.921 147.719 23.289 147.719C23.657 147.719 23.9544 148.016 23.9544 148.384C23.9544 148.752 23.657 149.049 23.289 149.049Z"
              fill="white"/>
    </g>
    <g clip-path="url(#clip3_67467_554076)">
        <path
                d="M296.102 140.366V147.253C296.102 147.601 295.802 147.766 295.437 148.025C295.144 148.234 294.772 147.975 294.772 147.635C294.772 147.635 294.772 141.044 294.772 140.905C294.772 140.764 294.722 140.631 294.563 140.549C294.403 140.467 289.414 137.844 289.414 137.844C289.333 137.814 288.982 137.593 288.514 137.833C288.068 138.062 287.826 138.311 287.764 138.428L293.207 141.411C293.352 141.486 293.441 141.604 293.441 141.754V148.942C293.441 149.095 293.346 149.258 293.195 149.331C293.126 149.365 293.05 149.382 292.974 149.382C292.884 149.382 292.793 149.36 292.717 149.313C292.574 149.226 287.544 146.142 287.212 145.941C287.052 145.845 286.865 145.649 286.861 145.503L286.787 138.659C286.787 138.527 286.772 138.295 286.979 137.972C287.443 137.251 289.061 136.431 289.88 136.856L295.868 139.887C296.013 139.961 296.102 140.11 296.102 140.366Z"
                fill="white"/>
    </g>
    <g clip-path="url(#clip4_67467_554076)">
        <path
                d="M165.85 78.1428L156.66 87.3339C156.272 87.7225 156.272 88.3573 156.662 88.7472L158.781 90.8679C159.17 91.2565 159.806 91.2578 160.194 90.8692L169.386 81.678C169.774 81.2888 169.774 80.6527 169.386 80.2641L167.266 78.1428C166.875 77.7528 166.24 77.7548 165.85 78.1428ZM158.983 88.0399L158.478 88.545L157.217 87.2827L157.722 86.7777L158.983 88.0399ZM161.003 88.0399L160.498 88.545L158.226 86.2726L158.731 85.7669L161.003 88.0399ZM161.003 86.0198L160.498 86.5248L159.236 85.2632L159.741 84.7575L161.003 86.0198ZM162.014 85.0097L161.509 85.5147L160.247 84.2531L160.752 83.7474L162.014 85.0097ZM164.033 85.0097L163.528 85.5147L161.256 83.2431L161.761 82.738L164.033 85.0097ZM164.033 82.9902L163.528 83.4952L162.266 82.2336L162.771 81.7286L164.033 82.9902ZM165.043 81.9808L164.538 82.4858L163.276 81.2236L163.781 80.7185L165.043 81.9808ZM167.063 81.9808L166.558 82.4858L164.286 80.2135L164.791 79.7078L167.063 81.9808ZM167.063 79.9613L166.558 80.4663L165.296 79.2034L165.801 78.699L167.063 79.9613Z"
                fill="white"/>
    </g>
    <path fill-rule="evenodd" clip-rule="evenodd"
          d="M163.356 37.6079H156.037C155.854 37.6079 155.704 37.7576 155.704 37.9406V38.606C155.704 38.7896 155.854 38.9387 156.037 38.9387H163.356C163.54 38.9387 163.689 38.7896 163.689 38.606V37.9406C163.689 37.7576 163.54 37.6079 163.356 37.6079ZM163.356 34.9463H156.037C155.854 34.9463 155.704 35.096 155.704 35.279V35.9444C155.704 36.128 155.854 36.2771 156.037 36.2771H163.356C163.54 36.2771 163.689 36.128 163.689 35.9444V35.279C163.689 35.096 163.54 34.9463 163.356 34.9463ZM160.029 40.2695H156.037C155.854 40.2695 155.704 40.4192 155.704 40.6022V41.2676C155.704 41.4512 155.854 41.6003 156.037 41.6003H160.029C160.213 41.6003 160.362 41.4512 160.362 41.2676V40.6022C160.362 40.4192 160.213 40.2695 160.029 40.2695ZM163.356 32.2847H156.037C155.854 32.2847 155.704 32.4344 155.704 32.6174V33.2828C155.704 33.4664 155.854 33.6155 156.037 33.6155H163.356C163.54 33.6155 163.689 33.4664 163.689 33.2828V32.6174C163.689 32.4344 163.54 32.2847 163.356 32.2847Z"
          fill="white"/>
    <path
            d="M219.013 96.3121C219.3 96.3627 219.575 96.1706 219.625 95.883V95.883C219.676 95.5953 219.484 95.3211 219.196 95.2704L213.479 94.2637C213.192 94.213 212.918 94.4052 212.867 94.6928V94.6928C212.816 94.9804 213.008 95.2547 213.296 95.3053L219.013 96.3121Z"
            fill="black"/>
    <path
            d="M204.971 94.2997C205.279 94.3046 205.532 94.0591 205.537 93.7514V93.7514C205.542 93.4437 205.296 93.1902 204.989 93.1853L198.957 93.0889C198.649 93.0839 198.395 93.3294 198.39 93.6371V93.6371C198.386 93.9449 198.631 94.1983 198.939 94.2032L204.971 94.2997Z"
            fill="black"/>
    <path opacity="0.7"
          d="M214.539 92.2412C214.987 92.4952 215.556 92.3382 215.81 91.8904V91.8904C216.064 91.4427 215.907 90.8737 215.459 90.6197L213.05 89.2531C212.602 88.999 212.034 89.1561 211.78 89.6038V89.6038C211.525 90.0516 211.682 90.6205 212.13 90.8746L214.539 92.2412Z"
          fill="#333B42"/>
    <path opacity="0.7"
          d="M203.921 91.4423C203.435 91.6136 202.903 91.3589 202.732 90.8734V90.8734C202.56 90.3879 202.815 89.8555 203.301 89.6842L205.782 88.8086C206.268 88.6373 206.8 88.892 206.971 89.3775V89.3775C207.143 89.863 206.888 90.3954 206.403 90.5667L203.921 91.4423Z"
          fill="#333B42"/>
    <path
            d="M218.187 112.583C218.885 112.437 219.569 112.885 219.714 113.583C219.86 114.281 219.412 114.965 218.714 115.111L216.692 115.533C215.994 115.679 215.31 115.231 215.164 114.533C215.018 113.835 215.466 113.151 216.164 113.005L218.187 112.583Z"
            fill="#6C6363"/>
    <path
            d="M219.494 113.086C219.599 113.23 219.676 113.397 219.714 113.583C219.86 114.281 219.412 114.965 218.714 115.111L216.692 115.533C216.364 115.601 216.038 115.539 215.771 115.38C215.666 115.237 215.589 115.069 215.55 114.883C215.405 114.185 215.852 113.501 216.55 113.356L218.573 112.933C218.901 112.865 219.226 112.927 219.494 113.086Z"
            fill="#312D2D"/>
    <path d="M232.774 98.2803V100.234C232.774 103.04 231.881 105.772 230.225 108.036V108.036C228.303 110.662 225.48 112.487 222.297 113.16L217.649 114.143"
          stroke="#545151" stroke-width="2"/>
    <path
            d="M208.319 63.9175C205.363 63.9175 202.537 64.5086 199.941 65.5855C203.106 63.8469 206.699 62.8647 210.509 62.8647C223.213 62.8647 233.512 73.7839 233.512 87.2533C233.512 88.7508 233.385 90.2168 233.141 91.6398H231.108C231.249 90.5498 231.321 89.4369 231.321 88.3061C231.321 74.8366 221.023 63.9175 208.319 63.9175Z"
            fill="#333B42"/>
    <path
            d="M201.927 64.6189C204.065 63.9231 206.335 63.5486 208.688 63.5486C221.392 63.5486 231.69 74.4677 231.69 87.9371C231.69 89.068 231.618 90.1809 231.477 91.2708H233.201C233.406 89.9638 233.512 88.6217 233.512 87.2533C233.512 73.7839 223.213 62.8647 210.509 62.8647C207.476 62.8647 204.579 63.4875 201.927 64.6189Z"
            fill="#A1A6AF"/>
    <ellipse rx="3.6891" ry="5.53366" transform="matrix(-1 0 0 1 231.668 93.4843)" fill="#333B42"/>
    <ellipse rx="3.6891" ry="5.53366" transform="matrix(-1 0 0 1 232.774 93.4843)" fill="#AEB2BA"/>
    <ellipse rx="2.21346" ry="3.32019" transform="matrix(-1 0 0 1 233.143 93.4843)" fill="#E7EBF2"/>
    <defs>
        <linearGradient id="paint0_linear_67467_554076" x1="209.173" y1="108.319" x2="204.688" y2="150.868"
                        gradientUnits="userSpaceOnUse">
            <stop stop-color="#DAE9F3"/>
            <stop offset="1" stop-color="#6EA1C2"/>
        </linearGradient>
        <clipPath id="clip0_67467_554076">
            <rect width="22.6236" height="22.6236" fill="white" transform="translate(107.129 105.133)"/>
        </clipPath>
        <clipPath id="clip1_67467_554076">
            <rect width="13.308" height="13.308" fill="white" transform="translate(273.479 81.1787)"/>
        </clipPath>
        <clipPath id="clip2_67467_554076">
            <rect width="13.308" height="13.308" fill="white" transform="translate(13.3081 143.726)"/>
        </clipPath>
        <clipPath id="clip3_67467_554076">
            <rect width="13.308" height="13.308" fill="white" transform="translate(284.791 136.407)"/>
        </clipPath>
        <clipPath id="clip4_67467_554076">
            <rect width="13.308" height="13.308" fill="white" transform="translate(156.369 77.8516)"/>
        </clipPath>
    </defs>
</svg>
