<svg width="40" height="32" viewBox="0 0 40 32" fill="none" xmlns="http://www.w3.org/2000/svg">
<g clip-path="url(#clip0_66565_185742)">
<path d="M9.28144 32.0004L21.1559 2.84015C21.86 1.12127 23.5373 0.000976562 25.4049 0.000976562H17.8685C14.9502 0.000976562 12.3119 1.76473 11.2275 4.44851L0.000976562 32.001H9.282L9.28144 32.0004Z" fill="#FEFEFE"/>
<path d="M31.0852 21.5071C31.0958 21.5335 31.107 21.5593 31.1188 21.5851L35.3672 32.0005H40.0004L29.143 5.37643L28.8137 4.56412L28.324 3.36191C27.8426 2.18608 26.6915 1.40967 25.4057 1.40967C24.5788 1.40967 23.8181 1.73055 23.2476 2.26293L26.8312 11.0609L26.8289 11.066L29.865 18.5092L31.0857 21.5071H31.0852Z" fill="#FEFEFE"/>
<path fill-rule="evenodd" clip-rule="evenodd" d="M22.9874 32.0003L20.3075 25.4083C20.093 24.8806 19.5802 24.5355 19.0106 24.5355H17.1309H13.8924L15.5611 20.4448L19.5425 20.4448H21.7694C22.5051 20.4448 23.1667 20.8925 23.4403 21.5754L25.302 26.2226L27.6167 32.0003H22.9874Z" fill="#FEFEFE"/>
<path fill-rule="evenodd" clip-rule="evenodd" d="M29.1924 32L20.0039 9.47235L22.3186 3.78223L33.8256 32H29.1924Z" fill="#FEFEFE"/>
</g>
<defs>
<clipPath id="clip0_66565_185742">
<rect width="40" height="32" fill="white"/>
</clipPath>
</defs>
</svg>
