<svg width="162" height="130" viewBox="0 0 162 130" fill="none" xmlns="http://www.w3.org/2000/svg">
<path d="M37.4081 129.771L85.2722 11.514C88.1101 4.54328 94.8713 0 102.399 0H72.0212C60.2581 0 49.6234 7.15276 45.2524 18.0366L0 129.773H37.4103L37.4081 129.771Z" fill="#FEFEFE"/>
<path d="M125.294 87.2146C125.337 87.3216 125.383 87.4262 125.43 87.5309L142.555 129.769H161.23L117.466 21.7978L116.139 18.5035L114.165 13.6281C112.224 8.85961 107.584 5.71094 102.401 5.71094C99.0684 5.71094 96.0021 7.01227 93.7024 9.17129L108.147 44.8509L108.138 44.8714L120.376 75.0568L125.297 87.2146H125.294Z" fill="#FEFEFE"/>
<path fill-rule="evenodd" clip-rule="evenodd" d="M92.6532 129.77L81.5817 102.369C80.8801 100.633 79.195 99.4967 77.3225 99.4967H55.9927L62.7189 82.9072L88.4994 82.9072C91.0074 82.9072 93.262 84.4363 94.1898 86.7664L111.313 129.77H92.6532Z" fill="#FEFEFE"/>
<path fill-rule="evenodd" clip-rule="evenodd" d="M117.665 129.77L80.6279 38.4108L89.9579 15.335L136.341 129.77H117.665Z" fill="#FEFEFE"/>
</svg>
